<svg width="96" height="96" viewBox="0 0 96 96" fill="none" xmlns="http://www.w3.org/2000/svg">
  <rect x="8" y="8" width="80" height="80" rx="18" fill="#111827"/>
  <rect x="8.5" y="8.5" width="79" height="79" rx="17.5" stroke="#4B5563"/>
  <path d="M34 61.5L38.2 58.9C39 60.3 39.8 61.5 41.6 61.5C43.3 61.5 44.4 60.8 44.4 58.2V39H49.6V58.3C49.6 64.1 46.2 66.7 41.2 66.7C36.7 66.7 34.1 64.4 32.8 61.7L34 61.5Z" fill="#60A5FA"/>
  <path d="M58.7 61.2C59.8 63 61.1 64.3 63.7 64.3C65.9 64.3 67.3 63.2 67.3 61.6C67.3 59.8 65.9 59.1 63.4 58L62 57.4C57.8 55.6 55.1 53.3 55.1 48.6C55.1 44.3 58.4 41 63.4 41C66.9 41 69.4 42.2 71.2 45.5L67 48.2C66.1 46.6 65.1 46 63.4 46C61.7 46 60.6 47.1 60.6 48.2C60.6 49.8 61.7 50.5 64.3 51.6L65.7 52.2C70.7 54.4 73.4 56.6 73.4 61.5C73.4 66.8 69.3 69.7 63.8 69.7C58.4 69.7 54.9 67.1 53.2 63.7L58.7 61.2Z" fill="#A78BFA"/>
</svg>
