<svg width="96" height="96" viewBox="0 0 96 96" fill="none" xmlns="http://www.w3.org/2000/svg">
  <rect x="8" y="8" width="80" height="80" rx="18" fill="#111827"/>
  <rect x="8.5" y="8.5" width="79" height="79" rx="17.5" stroke="#4B5563"/>
  <path d="M47.7 26C37.8 26 38.5 30.3 38.5 30.3V37H48V39H34.6C34.6 39 28 38.2 28 48.4C28 58.6 33.8 58.2 33.8 58.2H37.2V53.2C37.2 53.2 37 47.2 43.1 47.2H53.2C53.2 47.2 58.9 47.3 58.9 41.7V31.2C58.9 31.2 59.8 26 48.8 26H47.7Z" fill="#60A5FA"/>
  <circle cx="43.2" cy="31.4" r="1.9" fill="#E5E7EB"/>
  <path d="M48.4 70.5C58.3 70.5 57.6 66.1 57.6 66.1V59.4H48.1V57.4H61.5C61.5 57.4 68.1 58.1 68.1 48C68.1 37.8 62.3 38.1 62.3 38.1H58.9V43.2C58.9 43.2 59.1 49.2 53 49.2H42.9C42.9 49.2 37.2 49.1 37.2 54.6V65.2C37.2 65.2 36.3 70.5 47.3 70.5H48.4Z" fill="#A78BFA"/>
  <circle cx="52.9" cy="65.1" r="1.9" fill="#E5E7EB"/>
</svg>
